<svg class="diagram-root" style="background: #f5f6f6" xmlns="http://www.w3.org/2000/svg" xmlns:xlink="http://www.w3.org/1999/xlink"><style>.diagram-root { font-family: "Helvetica Neue", sans-serif; font-size: 12px; } .t { overflow: visible; } .t-bg { y: 40; fill: #fff;   } .th { fill: #005aa0;   } .tht { fill: #fff; font-size: 14px;  } .tf { fill: #323c46; overflow: visible; } .tf.pk { fill: #005aa0; font-weight: bold; } .tf.fk { font-weight: bold; } .ty { fill: #adb1b5; font-weight: normal; text-anchor: end; } .r { fill: transparent; stroke: #c3c3c3; stroke-width: 1; } .l { stroke: 1; } .i { fill: #c2c7ce; stroke: #c2c7ce; } .i.ix { fill: #afb3b6; stroke: #000; } .fa { fill: transparent; overflow: visible; } .fa .bg.hover { fill: #f7f7f7; } .c { cy: 12; r: 4; stroke: #d2d2dc; fill: #d2d2dc; } .hr { fill: transparent; stroke: #323c46; stroke-opacity: 0.035; stroke-width: 13; } .dc { stroke: #fa5a3c; fill: #fa5a3c; } .x { stroke: white; stroke-width: 1; } .hl .th { fill: #1b9bff; } .hl .tht {  } .fhl .bg { fill: #e7f4ff; } .fhls .bg {  } .r.hl { stroke: #1b9bff; } .dim { opacity: 0.25; }</style><g class="drawing-wrapper" transform="translate(-358, -22) scale(1,1)"><g class="rs"><path d="M 548.73 343 m -1, 0 a 1,1 0 1,0 2,0 a 1,1 0 1,0 -2,0 M 548.73 343 m -0.5, 0 a 0.5,0.5 0 1,0 1,0 a 0.5,0.5 0 1,0 -1,0  M548.73 343 L548.73 343 560.73 343 M 548.73 349 m -1, 0 a 1,1 0 1,0 2,0 a 1,1 0 1,0 -2,0 M 548.73 349 m -0.5, 0 a 0.5,0.5 0 1,0 1,0 a 0.5,0.5 0 1,0 -1,0  M548.73 349 L548.73 349 555.73 343 548.73 337 M 548.73 337 m -1, 0 a 1,1 0 1,0 2,0 a 1,1 0 1,0 -2,0 M 548.73 337 m -0.5, 0 a 0.5,0.5 0 1,0 1,0 a 0.5,0.5 0 1,0 -1,0  M560.73 343 Q 578.55 343, 596.37 226 T 632 109 M 644 109 m -1, 0 a 1,1 0 1,0 2,0 a 1,1 0 1,0 -2,0 M 644 109 m -0.5, 0 a 0.5,0.5 0 1,0 1,0 a 0.5,0.5 0 1,0 -1,0  M644 109 L644 109 632 109 M638 115 L638 115 638 103" id="h1139284389" class="r"></path><path d="M 548.73 368 m -1, 0 a 1,1 0 1,0 2,0 a 1,1 0 1,0 -2,0 M 548.73 368 m -0.5, 0 a 0.5,0.5 0 1,0 1,0 a 0.5,0.5 0 1,0 -1,0  M548.73 368 L548.73 368 560.73 368 M 548.73 374 m -1, 0 a 1,1 0 1,0 2,0 a 1,1 0 1,0 -2,0 M 548.73 374 m -0.5, 0 a 0.5,0.5 0 1,0 1,0 a 0.5,0.5 0 1,0 -1,0  M548.73 374 L548.73 374 555.73 368 548.73 362 M 548.73 362 m -1, 0 a 1,1 0 1,0 2,0 a 1,1 0 1,0 -2,0 M 548.73 362 m -0.5, 0 a 0.5,0.5 0 1,0 1,0 a 0.5,0.5 0 1,0 -1,0  M560.73 368 C 613.9300000000001 368, 612.73 600, 562.73 600 M 550.73 600 m -1, 0 a 1,1 0 1,0 2,0 a 1,1 0 1,0 -2,0 M 550.73 600 m -0.5, 0 a 0.5,0.5 0 1,0 1,0 a 0.5,0.5 0 1,0 -1,0  M550.73 600 L550.73 600 562.73 600 M556.73 606 L556.73 606 556.73 594" id="h1607168654" class="r"></path><path d="M 759 646 m -1, 0 a 1,1 0 1,0 2,0 a 1,1 0 1,0 -2,0 M 759 646 m -0.5, 0 a 0.5,0.5 0 1,0 1,0 a 0.5,0.5 0 1,0 -1,0  M759 646 L759 646 747 646 M 759 652 m -1, 0 a 1,1 0 1,0 2,0 a 1,1 0 1,0 -2,0 M 759 652 m -0.5, 0 a 0.5,0.5 0 1,0 1,0 a 0.5,0.5 0 1,0 -1,0  M759 652 L759 652 752 646 759 640 M 759 640 m -1, 0 a 1,1 0 1,0 2,0 a 1,1 0 1,0 -2,0 M 759 640 m -0.5, 0 a 0.5,0.5 0 1,0 1,0 a 0.5,0.5 0 1,0 -1,0  M747 646 Q 700.94 646, 654.87 623 T 562.73 600 M 550.73 600 m -1, 0 a 1,1 0 1,0 2,0 a 1,1 0 1,0 -2,0 M 550.73 600 m -0.5, 0 a 0.5,0.5 0 1,0 1,0 a 0.5,0.5 0 1,0 -1,0  M550.73 600 L550.73 600 562.73 600 M556.73 606 L556.73 606 556.73 594" id="h1397587031" class="r"></path><path d="M 909.73 671 m -1, 0 a 1,1 0 1,0 2,0 a 1,1 0 1,0 -2,0 M 909.73 671 m -0.5, 0 a 0.5,0.5 0 1,0 1,0 a 0.5,0.5 0 1,0 -1,0  M909.73 671 L909.73 671 921.73 671 M 909.73 677 m -1, 0 a 1,1 0 1,0 2,0 a 1,1 0 1,0 -2,0 M 909.73 677 m -0.5, 0 a 0.5,0.5 0 1,0 1,0 a 0.5,0.5 0 1,0 -1,0  M909.73 677 L909.73 677 916.73 671 909.73 665 M 909.73 665 m -1, 0 a 1,1 0 1,0 2,0 a 1,1 0 1,0 -2,0 M 909.73 665 m -0.5, 0 a 0.5,0.5 0 1,0 1,0 a 0.5,0.5 0 1,0 -1,0  M921.73 671 C 971.73 671, 1029.54 109, 825.38 109 M 813.38 109 m -1, 0 a 1,1 0 1,0 2,0 a 1,1 0 1,0 -2,0 M 813.38 109 m -0.5, 0 a 0.5,0.5 0 1,0 1,0 a 0.5,0.5 0 1,0 -1,0  M813.38 109 L813.38 109 825.38 109 M819.38 115 L819.38 115 819.38 103" id="h2286254435" class="r"></path><path d="M 813.38 134 m -1, 0 a 1,1 0 1,0 2,0 a 1,1 0 1,0 -2,0 M 813.38 134 m -0.5, 0 a 0.5,0.5 0 1,0 1,0 a 0.5,0.5 0 1,0 -1,0  M813.38 134 L813.38 134 825.38 134 M 813.38 140 m -1, 0 a 1,1 0 1,0 2,0 a 1,1 0 1,0 -2,0 M 813.38 140 m -0.5, 0 a 0.5,0.5 0 1,0 1,0 a 0.5,0.5 0 1,0 -1,0  M813.38 140 L813.38 140 820.38 134 813.38 128 M 813.38 128 m -1, 0 a 1,1 0 1,0 2,0 a 1,1 0 1,0 -2,0 M 813.38 128 m -0.5, 0 a 0.5,0.5 0 1,0 1,0 a 0.5,0.5 0 1,0 -1,0  M825.38 134 C 934.036 134, 912.04 434, 862.04 434 M 850.04 434 m -1, 0 a 1,1 0 1,0 2,0 a 1,1 0 1,0 -2,0 M 850.04 434 m -0.5, 0 a 0.5,0.5 0 1,0 1,0 a 0.5,0.5 0 1,0 -1,0  M850.04 434 L850.04 434 862.04 434 M856.04 440 L856.04 440 856.04 428" id="h2259368042" class="r"></path><path d="M 1042 180 m -1, 0 a 1,1 0 1,0 2,0 a 1,1 0 1,0 -2,0 M 1042 180 m -0.5, 0 a 0.5,0.5 0 1,0 1,0 a 0.5,0.5 0 1,0 -1,0  M1042 180 L1042 180 1030 180 M 1042 186 m -1, 0 a 1,1 0 1,0 2,0 a 1,1 0 1,0 -2,0 M 1042 186 m -0.5, 0 a 0.5,0.5 0 1,0 1,0 a 0.5,0.5 0 1,0 -1,0  M1042 186 L1042 186 1035 180 1042 174 M 1042 174 m -1, 0 a 1,1 0 1,0 2,0 a 1,1 0 1,0 -2,0 M 1042 174 m -0.5, 0 a 0.5,0.5 0 1,0 1,0 a 0.5,0.5 0 1,0 -1,0  M1030 180 Q 978.85 180, 927.69 144.5 T 825.38 109 M 813.38 109 m -1, 0 a 1,1 0 1,0 2,0 a 1,1 0 1,0 -2,0 M 813.38 109 m -0.5, 0 a 0.5,0.5 0 1,0 1,0 a 0.5,0.5 0 1,0 -1,0  M813.38 109 L813.38 109 825.38 109 M819.38 115 L819.38 115 819.38 103" id="h3177548053" class="r"></path></g><g class="hrs"></g><g class="ts"><svg width="102.04" height="100" x="1042" y="123" id="h2472833127" class="t"><rect height="40" width="102.04" class="th"></rect><text x="13" y="25" class="tht">salaries</text><rect height="60" width="102.04" class="t-bg"></rect><text x="13" y="61" class="tf fk">emp_no<tspan x="89.04" class="ty">int</tspan></text><text x="13" y="86" class="tf">salary<tspan x="89.04" class="ty">int</tspan></text></svg><svg width="169.38" height="225" x="644" y="52" id="h1639608377" class="t"><rect height="40" width="169.38" class="th"></rect><text x="13" y="25" class="tht">employees</text><rect height="185" width="169.38" class="t-bg"></rect><text x="13" y="61" class="tf pk">emp_no<tspan x="156.38" class="ty">int</tspan></text><path d="M7,14A2,2 0 0,1 5,12A2,2 0 0,1 7,10A2,2 0 0,1 9,12A2,2 0 0,1 7,14M12.65,10C11.83,7.67 9.61,6 7, 6A6, 6 0 0, 0 1, 12A6, 6 0 0, 0 7, 18C9.61, 18 11.83, 16.33 12.65, 14H17V18H21V14H23V10H12.65Z" class="i pk" transform="translate(123.706171875, 48) scale(0.65)"></path><text x="13" y="86" class="tf fk">emp_title-id<tspan x="156.38" class="ty">varchar(30)</tspan></text><text x="13" y="111" class="tf">birth_date<tspan x="156.38" class="ty">date</tspan></text><text x="13" y="136" class="tf">first_name<tspan x="156.38" class="ty">varchar(30)</tspan></text><text x="13" y="161" class="tf">last_name<tspan x="156.38" class="ty">varchar(30)</tspan></text><text x="13" y="186" class="tf">sex<tspan x="156.38" class="ty">varchar(10)</tspan></text><text x="13" y="211" class="tf">hire_date<tspan x="156.38" class="ty">date</tspan></text></svg><svg width="162.04" height="100" x="688" y="377" id="h311790747" class="t"><rect height="40" width="162.04" class="th"></rect><text x="13" y="25" class="tht">titles</text><rect height="60" width="162.04" class="t-bg"></rect><text x="13" y="61" class="tf pk">title_id<tspan x="149.04" class="ty">varchar(30)</tspan></text><path d="M7,14A2,2 0 0,1 5,12A2,2 0 0,1 7,10A2,2 0 0,1 9,12A2,2 0 0,1 7,14M12.65,10C11.83,7.67 9.61,6 7, 6A6, 6 0 0, 0 1, 12A6, 6 0 0, 0 7, 18C9.61, 18 11.83, 16.33 12.65, 14H17V18H21V14H23V10H12.65Z" class="i pk" transform="translate(67.68648437499999, 48) scale(0.65)"></path><text x="13" y="86" class="tf">title<tspan x="149.04" class="ty">varchar(50)</tspan></text></svg><svg width="150.73" height="100" x="759" y="589" id="h1676682957" class="t"><rect height="40" width="150.73" class="th"></rect><text x="13" y="25" class="tht">dept_manager</text><rect height="60" width="150.73" class="t-bg"></rect><text x="13" y="61" class="tf fk">dept_no<tspan x="137.73" class="ty">varchar(30)</tspan></text><text x="13" y="86" class="tf fk">emp_no<tspan x="137.73" class="ty">int</tspan></text></svg><svg width="170.73" height="100" x="380" y="543" id="h475896179" class="t"><rect height="40" width="170.73" class="th"></rect><text x="13" y="25" class="tht">departments</text><rect height="60" width="170.73" class="t-bg"></rect><text x="13" y="61" class="tf pk">dept_no<tspan x="157.73" class="ty">varchar(30)</tspan></text><path d="M7,14A2,2 0 0,1 5,12A2,2 0 0,1 7,10A2,2 0 0,1 9,12A2,2 0 0,1 7,14M12.65,10C11.83,7.67 9.61,6 7, 6A6, 6 0 0, 0 1, 12A6, 6 0 0, 0 7, 18C9.61, 18 11.83, 16.33 12.65, 14H17V18H21V14H23V10H12.65Z" class="i pk" transform="translate(76.37648437499999, 48) scale(0.65)"></path><text x="13" y="86" class="tf">dept_name<tspan x="157.73" class="ty">varchar(50)</tspan></text></svg><svg width="150.73" height="100" x="398" y="286" id="h1090417462" class="t"><rect height="40" width="150.73" class="th"></rect><text x="13" y="25" class="tht">dept_emp</text><rect height="60" width="150.73" class="t-bg"></rect><text x="13" y="61" class="tf fk">emp_no<tspan x="137.73" class="ty">int</tspan></text><text x="13" y="86" class="tf fk">dept_no<tspan x="137.73" class="ty">varchar(30)</tspan></text></svg></g></g><text class="qdbd-link" x="10" y="20">www.quickdatabasediagrams.com</text></svg>